<?xml version="1.0" standalone="no"?>
<!DOCTYPE svg PUBLIC "-//W3C//DTD SVG 1.1//EN" "http://www.w3.org/Graphics/SVG/1.1/DTD/svg11.dtd">
<svg width="1512" height="982" viewBox="0 0 1512 982" fill="none" xmlns="http://www.w3.org/2000/svg">
<g clip-path="url(#clip0_1_2)">
<rect width="1512" height="982" fill="#F4F6FC"/>
<path d="M-150 -29H1512V671.785C1512 671.785 1158.5 250.85 681 456.909C203.501 662.967 -150 242.032 -150 242.032V-29Z" fill="#26619C"/>
<path d="M-150 -21.1387H1512V679.646C1512 679.646 1158.5 258.711 681 464.77C203.501 670.829 -150 249.893 -150 249.893V-21.1387Z" fill="#26619C" fill-opacity="0.4"/>
<path d="M-150 -8.78503H1512V692C1512 692 1158.5 271.065 681 477.124C203.501 683.182 -150 262.247 -150 262.247V-8.78503Z" fill="#26619C" fill-opacity="0.2"/>
<rect x="682" y="582" width="211.714" height="48.5141" rx="3" stroke="#26619C" stroke-width="2"/>
<rect x="682" y="652.496" width="211.714" height="48.5141" rx="3" stroke="#26619C" stroke-width="2"/>
<path d="M695.539 611.039V602.7H697.082V611.039H695.539ZM701.111 611.158C700.296 611.158 699.654 610.858 699.188 610.259C698.721 609.659 698.487 608.859 698.487 607.857C698.487 606.885 698.719 606.106 699.182 605.518C699.649 604.926 700.29 604.63 701.106 604.63C701.994 604.63 702.622 604.945 702.99 605.574C702.952 605.203 702.933 604.844 702.933 604.499V602.478L704.424 602.381V611.039H703.132L702.967 610.185C702.903 610.287 702.842 610.377 702.785 610.452C702.732 610.525 702.652 610.61 702.546 610.709C702.44 610.803 702.324 610.881 702.199 610.942C702.077 610.999 701.922 611.048 701.732 611.09C701.546 611.135 701.339 611.158 701.111 611.158ZM701.464 610.026C702.466 610.026 702.975 609.344 702.99 607.982C702.99 607.212 702.861 606.65 702.603 606.297C702.345 605.944 701.96 605.768 701.447 605.768C701 605.768 700.641 605.948 700.371 606.309C700.106 606.665 699.973 607.193 699.973 607.891C699.973 608.585 700.106 609.115 700.371 609.479C700.641 609.843 701.005 610.026 701.464 610.026ZM708.835 611.158C707.83 611.158 707.046 610.87 706.485 610.293C705.927 609.712 705.648 608.912 705.648 607.891C705.648 606.897 705.912 606.106 706.439 605.518C706.967 604.929 707.686 604.633 708.596 604.63C709.458 604.63 710.126 604.899 710.6 605.438C711.078 605.977 711.317 606.692 711.317 607.584C711.317 607.648 711.315 607.753 711.311 607.897C711.311 608.041 711.311 608.147 711.311 608.215H707.151C707.166 608.8 707.325 609.253 707.629 609.576C707.936 609.895 708.357 610.054 708.892 610.054C709.575 610.054 710.232 609.876 710.862 609.519L711.072 610.578C710.446 610.965 709.701 611.158 708.835 611.158ZM707.179 607.276H709.911C709.911 606.768 709.795 606.377 709.564 606.104C709.333 605.831 709.012 605.694 708.602 605.694C708.219 605.694 707.894 605.827 707.629 606.092C707.367 606.358 707.217 606.753 707.179 607.276ZM712.535 611.039V604.783H713.736L713.901 605.574C714.539 604.945 715.246 604.63 716.024 604.63C716.753 604.63 717.297 604.84 717.658 605.261C718.022 605.679 718.204 606.286 718.204 607.083V611.039H716.707V607.265C716.704 606.76 716.622 606.383 716.463 606.132C716.303 605.882 716.017 605.757 715.603 605.757C715.281 605.757 714.985 605.84 714.715 606.007C714.45 606.17 714.256 606.377 714.135 606.627C714.063 606.923 714.026 607.379 714.026 607.994V611.039H712.535ZM722.172 611.124C721.747 611.124 721.392 611.075 721.107 610.976C720.826 610.874 720.606 610.714 720.447 610.498C720.288 610.282 720.174 610.027 720.105 609.735C720.041 609.439 720.009 609.075 720.009 608.642V605.688H718.984L719.041 604.88L720.111 604.783L720.589 603.087L721.5 603.081V604.783H723.054V605.688H721.5V608.671C721.5 609.145 721.568 609.483 721.705 609.684C721.842 609.885 722.094 609.986 722.462 609.986C722.678 609.986 722.91 609.967 723.156 609.929L723.196 610.999C723.189 610.999 723.141 611.008 723.054 611.027C722.97 611.042 722.889 611.056 722.809 611.067C722.733 611.082 722.635 611.096 722.513 611.107C722.392 611.118 722.278 611.124 722.172 611.124ZM724.283 611.039V604.783H725.775V611.039H724.283ZM724.283 603.873V602.598H725.78V603.873H724.283ZM727.619 611.039V605.677H726.634V604.789H727.619V604.601C727.623 604.317 727.634 604.076 727.653 603.878C727.676 603.681 727.716 603.487 727.773 603.298C727.829 603.108 727.909 602.954 728.012 602.837C728.114 602.715 728.247 602.609 728.41 602.518C728.577 602.423 728.78 602.355 729.019 602.313C729.258 602.271 729.539 602.25 729.861 602.25H730.249L730.374 603.332H729.975C729.774 603.332 729.613 603.351 729.491 603.389C729.374 603.423 729.283 603.487 729.218 603.582C729.158 603.673 729.118 603.78 729.099 603.901C729.08 604.022 729.07 604.189 729.07 604.402V604.789H732.628V611.039H731.182V605.677H729.07V611.039H727.619ZM731.182 603.873V602.598H732.633V603.873H731.182ZM735.724 611.158C735.144 611.158 734.673 610.999 734.313 610.68C733.956 610.358 733.778 609.895 733.778 609.291C733.778 608.642 733.99 608.162 734.415 607.851C734.84 607.536 735.481 607.337 736.339 607.254C736.457 607.238 736.584 607.223 736.72 607.208C736.857 607.193 737.011 607.178 737.181 607.162C737.352 607.147 737.487 607.134 737.585 607.123V606.793C737.585 606.413 737.498 606.138 737.324 605.967C737.149 605.793 736.883 605.705 736.527 605.705C736.018 605.705 735.39 605.848 734.643 606.132C734.639 606.121 734.576 605.948 734.455 605.614C734.333 605.28 734.271 605.11 734.267 605.102C735.003 604.787 735.8 604.63 736.658 604.63C737.5 604.63 738.113 604.814 738.496 605.182C738.879 605.546 739.071 606.138 739.071 606.958V611.039H737.967C737.963 611.024 737.921 610.896 737.842 610.657C737.762 610.418 737.722 610.291 737.722 610.276C737.411 610.58 737.105 610.803 736.806 610.948C736.51 611.088 736.149 611.158 735.724 611.158ZM736.128 610.1C736.474 610.1 736.773 610.018 737.028 609.855C737.286 609.688 737.47 609.487 737.58 609.251V608.045C737.568 608.045 737.468 608.052 737.278 608.067C737.092 608.083 736.992 608.09 736.976 608.09C736.373 608.143 735.931 608.257 735.65 608.432C735.369 608.606 735.229 608.887 735.229 609.274C735.229 609.54 735.307 609.745 735.462 609.889C735.618 610.029 735.84 610.1 736.128 610.1ZM740.574 611.039V604.783H741.775L741.94 605.574C742.577 604.945 743.285 604.63 744.063 604.63C744.791 604.63 745.336 604.84 745.696 605.261C746.061 605.679 746.243 606.286 746.243 607.083V611.039H744.746V607.265C744.742 606.76 744.661 606.383 744.501 606.132C744.342 605.882 744.055 605.757 743.642 605.757C743.319 605.757 743.023 605.84 742.754 606.007C742.488 606.17 742.295 606.377 742.173 606.627C742.101 606.923 742.065 607.379 742.065 607.994V611.039H740.574ZM750.21 611.124C749.785 611.124 749.43 611.075 749.146 610.976C748.865 610.874 748.645 610.714 748.486 610.498C748.326 610.282 748.212 610.027 748.144 609.735C748.08 609.439 748.047 609.075 748.047 608.642V605.688H747.023L747.08 604.88L748.15 604.783L748.628 603.087L749.539 603.081V604.783H751.092V605.688H749.539V608.671C749.539 609.145 749.607 609.483 749.743 609.684C749.88 609.885 750.132 609.986 750.5 609.986C750.717 609.986 750.948 609.967 751.195 609.929L751.235 610.999C751.227 610.999 751.18 611.008 751.092 611.027C751.009 611.042 750.927 611.056 750.848 611.067C750.772 611.082 750.673 611.096 750.552 611.107C750.43 611.118 750.316 611.124 750.21 611.124Z" fill="#26619C"/>
<path d="M693.556 677.096V668.757H695.378L697.899 674.779L700.438 668.757H702.237V677.096H700.814V672.975L700.859 670.613L700.648 671.239L698.514 676.527H697.193L695.105 671.21L694.894 670.584L694.945 672.998V677.096H693.556ZM706.625 676.083C707.13 676.083 707.509 675.898 707.763 675.53C708.018 675.162 708.145 674.635 708.145 673.948C708.145 673.254 708.018 672.724 707.763 672.36C707.509 671.996 707.126 671.814 706.614 671.814C706.109 671.814 705.728 671.998 705.47 672.366C705.215 672.73 705.088 673.259 705.088 673.954C705.088 674.637 705.217 675.162 705.475 675.53C705.733 675.898 706.117 676.083 706.625 676.083ZM706.585 677.215C705.659 677.215 704.931 676.915 704.399 676.316C703.868 675.716 703.603 674.927 703.603 673.948C703.603 672.939 703.868 672.144 704.399 671.563C704.931 670.979 705.68 670.687 706.648 670.687C707.581 670.687 708.312 670.984 708.839 671.58C709.37 672.172 709.636 672.961 709.636 673.948C709.636 674.946 709.369 675.741 708.833 676.333C708.298 676.921 707.549 677.215 706.585 677.215ZM713.353 677.181C712.928 677.181 712.573 677.132 712.289 677.033C712.008 676.931 711.788 676.771 711.628 676.555C711.469 676.339 711.355 676.084 711.287 675.792C711.222 675.496 711.19 675.132 711.19 674.699V671.745H710.165L710.222 670.937L711.292 670.84L711.771 669.144L712.681 669.138V670.84H714.235V671.745H712.681V674.728C712.681 675.202 712.75 675.54 712.886 675.741C713.023 675.942 713.275 676.043 713.643 676.043C713.859 676.043 714.091 676.024 714.338 675.986L714.377 677.056C714.37 677.056 714.322 677.065 714.235 677.084C714.152 677.099 714.07 677.113 713.99 677.124C713.915 677.139 713.816 677.153 713.694 677.164C713.573 677.175 713.459 677.181 713.353 677.181ZM720.844 677.215C720.028 677.215 719.386 676.915 718.92 676.316C718.453 675.716 718.22 674.916 718.22 673.914C718.22 672.942 718.451 672.163 718.914 671.575C719.381 670.983 720.022 670.687 720.838 670.687C721.726 670.687 722.354 671.002 722.722 671.631C722.684 671.26 722.665 670.901 722.665 670.556V668.535L724.156 668.438V677.096H722.864L722.699 676.242C722.635 676.344 722.574 676.434 722.517 676.509C722.464 676.582 722.384 676.667 722.278 676.766C722.172 676.86 722.056 676.938 721.931 676.999C721.809 677.056 721.654 677.105 721.464 677.147C721.278 677.192 721.071 677.215 720.844 677.215ZM721.196 676.083C722.198 676.083 722.707 675.401 722.722 674.039C722.722 673.269 722.593 672.707 722.335 672.354C722.077 672.001 721.692 671.825 721.179 671.825C720.732 671.825 720.373 672.005 720.104 672.366C719.838 672.722 719.705 673.25 719.705 673.948C719.705 674.642 719.838 675.172 720.104 675.536C720.373 675.9 720.737 676.083 721.196 676.083ZM728.567 677.215C727.562 677.215 726.778 676.927 726.217 676.35C725.659 675.769 725.38 674.969 725.38 673.948C725.38 672.954 725.644 672.163 726.171 671.575C726.699 670.986 727.418 670.69 728.328 670.687C729.19 670.687 729.858 670.956 730.332 671.495C730.81 672.034 731.049 672.749 731.049 673.641C731.049 673.705 731.047 673.81 731.043 673.954C731.043 674.098 731.043 674.204 731.043 674.272H726.883C726.898 674.857 727.057 675.31 727.361 675.633C727.668 675.952 728.089 676.111 728.624 676.111C729.307 676.111 729.964 675.933 730.594 675.576L730.804 676.635C730.178 677.022 729.433 677.215 728.567 677.215ZM726.911 673.333H729.643C729.643 672.825 729.528 672.434 729.296 672.161C729.065 671.888 728.744 671.751 728.334 671.751C727.951 671.751 727.626 671.884 727.361 672.149C727.099 672.415 726.949 672.81 726.911 673.333ZM735.352 679.697V670.84H736.633L736.792 671.717C736.997 671.387 737.269 671.132 737.606 670.954C737.948 670.772 738.327 670.681 738.745 670.681C739.257 670.681 739.707 670.823 740.094 671.108C740.485 671.392 740.781 671.781 740.982 672.275C741.183 672.764 741.283 673.318 741.283 673.937C741.283 674.904 741.048 675.694 740.577 676.305C740.111 676.912 739.477 677.215 738.676 677.215C738.282 677.215 737.923 677.137 737.601 676.982C737.282 676.822 737.014 676.608 736.798 676.339C736.828 676.885 736.844 677.192 736.844 677.261V679.623L735.352 679.697ZM738.358 676.077C738.802 676.077 739.151 675.891 739.405 675.519C739.663 675.147 739.792 674.616 739.792 673.925C739.792 673.223 739.663 672.696 739.405 672.343C739.147 671.99 738.788 671.814 738.329 671.814C737.343 671.814 736.844 672.485 736.832 673.829C736.832 674.603 736.959 675.172 737.214 675.536C737.472 675.897 737.853 676.077 738.358 676.077ZM744.129 677.215C743.549 677.215 743.078 677.056 742.718 676.737C742.361 676.415 742.183 675.952 742.183 675.348C742.183 674.699 742.395 674.219 742.82 673.908C743.245 673.593 743.886 673.394 744.744 673.311C744.862 673.295 744.989 673.28 745.125 673.265C745.262 673.25 745.416 673.235 745.586 673.219C745.757 673.204 745.892 673.191 745.991 673.18V672.85C745.991 672.47 745.903 672.195 745.729 672.024C745.554 671.85 745.289 671.762 744.932 671.762C744.423 671.762 743.795 671.905 743.048 672.189C743.044 672.178 742.981 672.005 742.86 671.671C742.739 671.337 742.676 671.167 742.672 671.159C743.408 670.844 744.205 670.687 745.063 670.687C745.905 670.687 746.518 670.871 746.901 671.239C747.285 671.603 747.476 672.195 747.476 673.015V677.096H746.372C746.368 677.081 746.326 676.953 746.247 676.714C746.167 676.475 746.127 676.348 746.127 676.333C745.816 676.637 745.511 676.86 745.211 677.005C744.915 677.145 744.554 677.215 744.129 677.215ZM744.533 676.157C744.879 676.157 745.178 676.075 745.433 675.912C745.691 675.745 745.875 675.544 745.985 675.308V674.102C745.973 674.102 745.873 674.109 745.683 674.125C745.497 674.14 745.397 674.147 745.381 674.147C744.778 674.2 744.336 674.314 744.055 674.489C743.774 674.663 743.634 674.944 743.634 675.331C743.634 675.597 743.712 675.802 743.867 675.946C744.023 676.086 744.245 676.157 744.533 676.157ZM750.977 677.21C750.055 677.21 749.317 677.052 748.763 676.737L748.916 675.616C749.167 675.752 749.485 675.876 749.872 675.986C750.26 676.092 750.612 676.145 750.931 676.145C751.261 676.145 751.517 676.084 751.7 675.963C751.886 675.838 751.98 675.656 751.984 675.417C751.984 675.2 751.897 675.03 751.722 674.904C751.552 674.779 751.223 674.624 750.738 674.438C750.571 674.377 750.463 674.337 750.413 674.318C749.836 674.094 749.421 673.846 749.167 673.572C748.912 673.295 748.785 672.922 748.785 672.451C748.785 671.882 748.99 671.445 749.4 671.142C749.814 670.838 750.389 670.687 751.125 670.687C751.922 670.687 752.622 670.836 753.225 671.136L752.855 672.166C752.259 671.889 751.692 671.751 751.153 671.751C750.853 671.751 750.618 671.802 750.447 671.905C750.28 672.003 750.197 672.155 750.197 672.36C750.197 672.554 750.278 672.705 750.442 672.815C750.605 672.922 750.924 673.062 751.398 673.237C751.413 673.24 751.462 673.257 751.546 673.288C751.629 673.318 751.694 673.343 751.739 673.362C752.312 673.57 752.734 673.821 753.003 674.113C753.272 674.402 753.407 674.779 753.407 675.246C753.403 675.872 753.191 676.356 752.77 676.697C752.348 677.039 751.751 677.21 750.977 677.21ZM756.589 677.21C755.667 677.21 754.929 677.052 754.375 676.737L754.528 675.616C754.779 675.752 755.098 675.876 755.485 675.986C755.872 676.092 756.225 676.145 756.543 676.145C756.874 676.145 757.13 676.084 757.312 675.963C757.498 675.838 757.593 675.656 757.596 675.417C757.596 675.2 757.509 675.03 757.335 674.904C757.164 674.779 756.836 674.624 756.35 674.438C756.183 674.377 756.075 674.337 756.025 674.318C755.449 674.094 755.033 673.846 754.779 673.572C754.525 673.295 754.398 672.922 754.398 672.451C754.398 671.882 754.602 671.445 755.012 671.142C755.426 670.838 756.001 670.687 756.737 670.687C757.534 670.687 758.234 670.836 758.837 671.136L758.467 672.166C757.872 671.889 757.304 671.751 756.765 671.751C756.466 671.751 756.23 671.802 756.06 671.905C755.893 672.003 755.809 672.155 755.809 672.36C755.809 672.554 755.891 672.705 756.054 672.815C756.217 672.922 756.536 673.062 757.01 673.237C757.025 673.24 757.075 673.257 757.158 673.288C757.242 673.318 757.306 673.343 757.352 673.362C757.925 673.57 758.346 673.821 758.615 674.113C758.885 674.402 759.019 674.779 759.019 675.246C759.016 675.872 758.803 676.356 758.382 676.697C757.961 677.039 757.363 677.21 756.589 677.21ZM763.095 677.215C762.089 677.215 761.306 676.927 760.744 676.35C760.186 675.769 759.907 674.969 759.907 673.948C759.907 672.954 760.171 672.163 760.699 671.575C761.226 670.986 761.945 670.69 762.856 670.687C763.717 670.687 764.385 670.956 764.859 671.495C765.337 672.034 765.577 672.749 765.577 673.641C765.577 673.705 765.575 673.81 765.571 673.954C765.571 674.098 765.571 674.204 765.571 674.272H761.41C761.425 674.857 761.585 675.31 761.888 675.633C762.196 675.952 762.617 676.111 763.152 676.111C763.835 676.111 764.491 675.933 765.121 675.576L765.332 676.635C764.706 677.022 763.96 677.215 763.095 677.215ZM761.438 673.333H764.171C764.171 672.825 764.055 672.434 763.823 672.161C763.592 671.888 763.271 671.751 762.861 671.751C762.478 671.751 762.154 671.884 761.888 672.149C761.626 672.415 761.476 672.81 761.438 673.333Z" fill="#26619C"/>
<rect x="732" y="749" width="113" height="28" rx="3" fill="#26619C" stroke="#26619C" stroke-width="2"/>
<path d="M755.334 765.886C754.299 765.886 753.371 765.648 752.551 765.172L752.938 763.912C753.305 764.115 753.703 764.279 754.133 764.404C754.566 764.529 754.988 764.592 755.398 764.592C755.902 764.592 756.283 764.484 756.541 764.269C756.799 764.051 756.928 763.738 756.928 763.332C756.928 762.793 756.568 762.42 755.85 762.213C755.799 762.197 755.656 762.156 755.422 762.09C755.188 762.019 754.967 761.953 754.76 761.89C754.557 761.824 754.41 761.773 754.32 761.738C753.168 761.332 752.592 760.574 752.592 759.465C752.592 758.687 752.867 758.088 753.418 757.666C753.973 757.244 754.707 757.033 755.621 757.033C756.656 757.033 757.549 757.246 758.299 757.672L757.818 758.832C757.053 758.488 756.342 758.316 755.686 758.316C755.213 758.316 754.855 758.4 754.613 758.568C754.375 758.732 754.248 759.008 754.232 759.394C754.232 759.871 754.469 760.181 754.941 760.326C755.035 760.361 755.266 760.437 755.633 760.554C756 760.672 756.238 760.748 756.348 760.783C757.133 761.041 757.693 761.361 758.029 761.744C758.369 762.127 758.539 762.66 758.539 763.344C758.539 764.16 758.25 764.789 757.672 765.23C757.094 765.668 756.314 765.886 755.334 765.886ZM762.729 765.892C761.693 765.892 760.887 765.595 760.309 765.002C759.734 764.404 759.447 763.58 759.447 762.529C759.447 761.506 759.719 760.691 760.262 760.086C760.805 759.48 761.545 759.176 762.482 759.172C763.369 759.172 764.057 759.449 764.545 760.004C765.037 760.558 765.283 761.295 765.283 762.213C765.283 762.279 765.281 762.386 765.277 762.535C765.277 762.683 765.277 762.793 765.277 762.863H760.994C761.01 763.465 761.174 763.931 761.486 764.263C761.803 764.592 762.236 764.756 762.787 764.756C763.49 764.756 764.166 764.572 764.814 764.205L765.031 765.295C764.387 765.693 763.619 765.892 762.729 765.892ZM761.023 761.896H763.836C763.836 761.373 763.717 760.97 763.479 760.689C763.24 760.408 762.91 760.267 762.488 760.267C762.094 760.267 761.76 760.404 761.486 760.677C761.217 760.951 761.062 761.357 761.023 761.896ZM772.531 765.892C771.547 765.892 770.779 765.599 770.229 765.013C769.682 764.427 769.408 763.59 769.408 762.5C769.408 761.445 769.695 760.627 770.27 760.045C770.848 759.463 771.607 759.172 772.549 759.172C773.303 759.172 773.939 759.334 774.459 759.658L774.096 760.754C773.564 760.476 773.07 760.338 772.613 760.338C772.094 760.338 771.684 760.523 771.383 760.894C771.086 761.265 770.938 761.806 770.938 762.517C770.938 763.236 771.084 763.783 771.377 764.158C771.674 764.533 772.092 764.72 772.631 764.72C773.193 764.72 773.734 764.554 774.254 764.222L774.4 765.388C774.131 765.568 773.852 765.697 773.562 765.775C773.273 765.853 772.93 765.892 772.531 765.892ZM778.379 764.726C778.898 764.726 779.289 764.537 779.551 764.158C779.812 763.779 779.943 763.236 779.943 762.529C779.943 761.814 779.812 761.269 779.551 760.894C779.289 760.519 778.895 760.332 778.367 760.332C777.848 760.332 777.455 760.521 777.189 760.9C776.928 761.275 776.797 761.82 776.797 762.535C776.797 763.238 776.93 763.779 777.195 764.158C777.461 764.537 777.855 764.726 778.379 764.726ZM778.338 765.892C777.385 765.892 776.635 765.584 776.088 764.967C775.541 764.349 775.268 763.537 775.268 762.529C775.268 761.49 775.541 760.672 776.088 760.074C776.635 759.472 777.406 759.172 778.402 759.172C779.363 759.172 780.115 759.478 780.658 760.092C781.205 760.701 781.479 761.513 781.479 762.529C781.479 763.556 781.203 764.375 780.652 764.984C780.102 765.59 779.33 765.892 778.338 765.892ZM782.732 765.769V759.33H783.969L784.139 760.144C784.795 759.496 785.523 759.172 786.324 759.172C787.074 759.172 787.635 759.388 788.006 759.822C788.381 760.252 788.568 760.877 788.568 761.697V765.769H787.027V761.885C787.023 761.365 786.939 760.976 786.775 760.719C786.611 760.461 786.316 760.332 785.891 760.332C785.559 760.332 785.254 760.418 784.977 760.59C784.703 760.758 784.504 760.97 784.379 761.228C784.305 761.533 784.268 762.002 784.268 762.635V765.769H782.732ZM790.08 765.769V759.33H791.316L791.486 760.144C792.143 759.496 792.871 759.172 793.672 759.172C794.422 759.172 794.982 759.388 795.354 759.822C795.729 760.252 795.916 760.877 795.916 761.697V765.769H794.375V761.885C794.371 761.365 794.287 760.976 794.123 760.719C793.959 760.461 793.664 760.332 793.238 760.332C792.906 760.332 792.602 760.418 792.324 760.59C792.051 760.758 791.852 760.97 791.727 761.228C791.652 761.533 791.615 762.002 791.615 762.635V765.769H790.08ZM800.404 765.892C799.369 765.892 798.562 765.595 797.984 765.002C797.41 764.404 797.123 763.58 797.123 762.529C797.123 761.506 797.395 760.691 797.938 760.086C798.48 759.48 799.221 759.176 800.158 759.172C801.045 759.172 801.732 759.449 802.221 760.004C802.713 760.558 802.959 761.295 802.959 762.213C802.959 762.279 802.957 762.386 802.953 762.535C802.953 762.683 802.953 762.793 802.953 762.863H798.67C798.686 763.465 798.85 763.931 799.162 764.263C799.479 764.592 799.912 764.756 800.463 764.756C801.166 764.756 801.842 764.572 802.49 764.205L802.707 765.295C802.062 765.693 801.295 765.892 800.404 765.892ZM798.699 761.896H801.512C801.512 761.373 801.393 760.97 801.154 760.689C800.916 760.408 800.586 760.267 800.164 760.267C799.77 760.267 799.436 760.404 799.162 760.677C798.893 760.951 798.738 761.357 798.699 761.896ZM807.031 765.892C806.047 765.892 805.279 765.599 804.729 765.013C804.182 764.427 803.908 763.59 803.908 762.5C803.908 761.445 804.195 760.627 804.77 760.045C805.348 759.463 806.107 759.172 807.049 759.172C807.803 759.172 808.439 759.334 808.959 759.658L808.596 760.754C808.064 760.476 807.57 760.338 807.113 760.338C806.594 760.338 806.184 760.523 805.883 760.894C805.586 761.265 805.438 761.806 805.438 762.517C805.438 763.236 805.584 763.783 805.877 764.158C806.174 764.533 806.592 764.72 807.131 764.72C807.693 764.72 808.234 764.554 808.754 764.222L808.9 765.388C808.631 765.568 808.352 765.697 808.062 765.775C807.773 765.853 807.43 765.892 807.031 765.892ZM812.691 765.857C812.254 765.857 811.889 765.806 811.596 765.705C811.307 765.599 811.08 765.435 810.916 765.213C810.752 764.99 810.635 764.728 810.564 764.427C810.498 764.123 810.465 763.748 810.465 763.302V760.261H809.41L809.469 759.429L810.57 759.33L811.062 757.584L812 757.578V759.33H813.6V760.261H812V763.332C812 763.82 812.07 764.168 812.211 764.375C812.352 764.582 812.611 764.685 812.99 764.685C813.213 764.685 813.451 764.666 813.705 764.627L813.746 765.728C813.738 765.728 813.689 765.738 813.6 765.758C813.514 765.773 813.43 765.787 813.348 765.799C813.27 765.814 813.168 765.828 813.043 765.84C812.918 765.851 812.801 765.857 812.691 765.857ZM817.748 765.892C816.713 765.892 815.906 765.595 815.328 765.002C814.754 764.404 814.467 763.58 814.467 762.529C814.467 761.506 814.738 760.691 815.281 760.086C815.824 759.48 816.564 759.176 817.502 759.172C818.389 759.172 819.076 759.449 819.564 760.004C820.057 760.558 820.303 761.295 820.303 762.213C820.303 762.279 820.301 762.386 820.297 762.535C820.297 762.683 820.297 762.793 820.297 762.863H816.014C816.029 763.465 816.193 763.931 816.506 764.263C816.822 764.592 817.256 764.756 817.807 764.756C818.51 764.756 819.186 764.572 819.834 764.205L820.051 765.295C819.406 765.693 818.639 765.892 817.748 765.892ZM816.043 761.896H818.855C818.855 761.373 818.736 760.97 818.498 760.689C818.26 760.408 817.93 760.267 817.508 760.267C817.113 760.267 816.779 760.404 816.506 760.677C816.236 760.951 816.082 761.357 816.043 761.896ZM821.562 765.769V759.33H822.852L823.051 760.314C823.473 759.638 824.084 759.301 824.885 759.301C825.053 759.301 825.189 759.308 825.295 759.324L825.271 760.607C825.115 760.584 824.953 760.572 824.785 760.572C824.219 760.572 823.795 760.722 823.514 761.023C823.236 761.324 823.098 761.742 823.098 762.277V765.769H821.562Z" fill="#F4F6FC"/>
<path d="M604.941 115.232C606.622 115.515 607.6 117.291 606.942 118.864L529.633 303.405C529.221 304.388 528.259 305.028 527.192 305.028L503.814 305.028L483.934 305.028C482.055 305.028 480.775 303.125 481.483 301.385L521.406 203.314L560.081 109.757C560.552 108.617 561.749 107.954 562.966 108.159L604.941 115.232Z" fill="#F4F6FC"/>
<path d="M648.544 259.414C648.953 261.081 647.691 262.691 645.974 262.691L624.211 262.691L599.896 262.691C598.645 262.691 597.565 261.815 597.307 260.591L591.759 234.282C591.757 234.275 591.757 234.267 591.757 234.26V234.26C591.758 234.252 591.757 234.245 591.756 234.237L583.384 195.738C583.272 195.225 583.316 194.69 583.509 194.202L610.715 125.509C611.664 123.113 615.13 123.349 615.745 125.852L648.544 259.414Z" fill="#F4F6FC"/>
<path d="M743.016 180.412C743.859 180.412 744.587 180.719 745.2 181.332C745.813 181.945 746.119 182.673 746.119 183.516V257.77C746.119 258.613 745.813 259.341 745.2 259.954C744.587 260.567 743.859 260.873 743.016 260.873H724.51C722.671 260.873 721.138 260.069 719.912 258.46L694.854 226.505V257.77C694.854 258.613 694.548 259.341 693.934 259.954C693.321 260.567 692.593 260.873 691.751 260.873H670.371C669.528 260.873 668.8 260.567 668.187 259.954C667.574 259.341 667.267 258.613 667.267 257.77V183.516C667.267 182.673 667.574 181.945 668.187 181.332C668.8 180.719 669.528 180.412 670.371 180.412H688.992C690.831 180.412 692.325 181.179 693.475 182.711L718.533 217.309V183.516C718.533 182.673 718.839 181.945 719.452 181.332C720.065 180.719 720.793 180.412 721.636 180.412H743.016ZM820.328 237.31H841.133C841.976 237.31 842.704 237.616 843.317 238.229C843.93 238.842 844.237 239.57 844.237 240.413V257.77C844.237 258.613 843.93 259.341 843.317 259.954C842.704 260.567 841.976 260.873 841.133 260.873H768.259C767.416 260.873 766.688 260.567 766.075 259.954C765.462 259.341 765.155 258.613 765.155 257.77V240.413C765.155 239.57 765.462 238.842 766.075 238.229C766.688 237.616 767.416 237.31 768.259 237.31H789.293V203.976H768.259C767.416 203.976 766.688 203.669 766.075 203.056C765.462 202.443 765.155 201.715 765.155 200.872V183.516C765.155 182.673 765.462 181.945 766.075 181.332C766.688 180.719 767.416 180.412 768.259 180.412H841.133C841.976 180.412 842.704 180.719 843.317 181.332C843.93 181.945 844.237 182.673 844.237 183.516V200.872C844.237 201.715 843.93 202.443 843.317 203.056C842.704 203.669 841.976 203.976 841.133 203.976H820.328V237.31ZM917.412 183.516C918.561 181.447 920.209 180.412 922.354 180.412H943.389C944.232 180.412 944.96 180.719 945.573 181.332C946.186 181.945 946.493 182.673 946.493 183.516V257.77C946.493 258.613 946.186 259.341 945.573 259.954C944.96 260.567 944.232 260.873 943.389 260.873H922.584C921.741 260.873 921.013 260.567 920.4 259.954C919.787 259.341 919.481 258.613 919.481 257.77V222.137L911.09 238.689C910.86 239.226 910.323 239.839 909.48 240.528C908.637 241.218 907.565 241.563 906.262 241.563H898.446C897.143 241.563 896.07 241.218 895.227 240.528C894.384 239.839 893.848 239.226 893.618 238.689L885.227 222.137V257.77C885.227 258.613 884.921 259.341 884.308 259.954C883.695 260.567 882.967 260.873 882.124 260.873H861.319C860.476 260.873 859.748 260.567 859.135 259.954C858.522 259.341 858.215 258.613 858.215 257.77V183.516C858.215 182.673 858.522 181.945 859.135 181.332C859.748 180.719 860.476 180.412 861.319 180.412H882.354C884.499 180.412 886.147 181.447 887.296 183.516L902.354 211.102L917.412 183.516ZM969.896 231.563C969.053 231.563 968.325 231.256 967.712 230.643C967.099 230.03 966.793 229.302 966.793 228.459V212.482C966.793 211.639 967.099 210.911 967.712 210.298C968.325 209.685 969.053 209.378 969.896 209.378H988.172V192.022C988.172 191.179 988.479 190.451 989.092 189.838C989.705 189.225 990.433 188.918 991.276 188.918H1008.75C1009.59 188.918 1010.32 189.225 1010.93 189.838C1011.54 190.451 1011.85 191.179 1011.85 192.022V209.378H1030.13C1030.97 209.378 1031.7 209.685 1032.31 210.298C1032.92 210.911 1033.23 211.639 1033.23 212.482V228.459C1033.23 229.302 1032.92 230.03 1032.31 230.643C1031.7 231.256 1030.97 231.563 1030.13 231.563H1011.85V249.494C1011.85 250.337 1011.54 251.065 1010.93 251.678C1010.32 252.291 1009.59 252.597 1008.75 252.597H991.276C990.433 252.597 989.705 252.291 989.092 251.678C988.479 251.065 988.172 250.337 988.172 249.494V231.563H969.896Z" fill="#F4F6FC"/>
<path d="M607.967 304.94C604.793 304.94 602.311 303.983 600.52 302.069C598.739 300.155 597.848 297.535 597.848 294.209C597.848 292.096 598.265 290.239 599.099 288.638C599.933 287.027 601.16 285.772 602.78 284.872C604.4 283.972 606.314 283.522 608.522 283.522C611.051 283.522 613.221 284.066 615.031 285.156L613.78 288.027C612.056 287.098 610.327 286.634 608.593 286.634C606.489 286.634 604.836 287.316 603.633 288.681C602.429 290.045 601.828 291.902 601.828 294.252C601.828 296.583 602.363 298.426 603.434 299.78C604.504 301.135 606.072 301.813 608.138 301.813C609.464 301.813 610.668 301.604 611.748 301.188V296.355H607.385L607.413 293.328H615.372V303.376C614.083 303.907 612.861 304.3 611.705 304.556C610.559 304.812 609.313 304.94 607.967 304.94ZM626.372 304.94C623.861 304.94 621.905 304.219 620.503 302.779C619.11 301.33 618.413 299.33 618.413 296.782C618.413 294.299 619.072 292.324 620.389 290.855C621.706 289.387 623.501 288.647 625.775 288.638C627.926 288.638 629.594 289.311 630.778 290.656C631.972 292.002 632.569 293.788 632.569 296.014C632.569 296.175 632.564 296.436 632.555 296.796C632.555 297.156 632.555 297.421 632.555 297.592H622.165C622.203 299.051 622.601 300.183 623.359 300.989C624.127 301.784 625.178 302.182 626.514 302.182C628.22 302.182 629.859 301.737 631.432 300.846L631.958 303.49C630.394 304.456 628.533 304.94 626.372 304.94ZM622.236 295.247H629.058C629.058 293.977 628.769 293.001 628.191 292.319C627.613 291.637 626.813 291.296 625.79 291.296C624.833 291.296 624.023 291.627 623.359 292.291C622.705 292.954 622.331 293.939 622.236 295.247ZM640.599 304.925C638.296 304.925 636.454 304.532 635.07 303.746L635.454 300.946C636.079 301.287 636.875 301.595 637.842 301.87C638.808 302.135 639.689 302.268 640.485 302.268C641.309 302.268 641.949 302.116 642.404 301.813C642.868 301.5 643.105 301.045 643.114 300.448C643.114 299.908 642.896 299.482 642.461 299.169C642.034 298.857 641.215 298.468 640.002 298.004C639.585 297.852 639.315 297.753 639.192 297.705C637.752 297.146 636.714 296.526 636.079 295.844C635.444 295.152 635.127 294.219 635.127 293.044C635.127 291.623 635.639 290.533 636.662 289.775C637.695 289.017 639.13 288.638 640.968 288.638C642.958 288.638 644.706 289.012 646.213 289.761L645.289 292.333C643.801 291.642 642.385 291.296 641.039 291.296C640.291 291.296 639.703 291.424 639.277 291.679C638.86 291.926 638.652 292.305 638.652 292.816C638.652 293.3 638.855 293.679 639.263 293.953C639.67 294.219 640.466 294.569 641.651 295.005C641.688 295.015 641.812 295.057 642.02 295.133C642.229 295.209 642.39 295.27 642.503 295.318C643.934 295.839 644.986 296.464 645.658 297.194C646.331 297.914 646.668 298.857 646.668 300.022C646.658 301.585 646.127 302.794 645.076 303.646C644.024 304.499 642.532 304.925 640.599 304.925ZM655.863 304.854C654.802 304.854 653.916 304.731 653.205 304.485C652.504 304.229 651.954 303.831 651.557 303.291C651.159 302.751 650.874 302.116 650.704 301.386C650.543 300.647 650.462 299.738 650.462 298.658V291.282H647.904L648.046 289.263L650.718 289.022L651.912 284.786L654.186 284.772V289.022H658.066V291.282H654.186V298.729C654.186 299.913 654.356 300.756 654.697 301.259C655.039 301.761 655.669 302.012 656.588 302.012C657.128 302.012 657.706 301.964 658.322 301.87L658.421 304.542C658.402 304.542 658.284 304.565 658.066 304.613C657.857 304.651 657.654 304.684 657.455 304.712C657.265 304.75 657.019 304.783 656.716 304.812C656.412 304.84 656.128 304.854 655.863 304.854ZM661.136 304.641V289.022H664.859V304.641H661.136ZM661.136 286.748V283.564H664.874V286.748H661.136ZM675.561 302.111C676.821 302.111 677.769 301.652 678.404 300.733C679.038 299.814 679.356 298.497 679.356 296.782C679.356 295.048 679.038 293.726 678.404 292.816C677.769 291.907 676.812 291.452 675.533 291.452C674.273 291.452 673.32 291.912 672.676 292.831C672.041 293.74 671.724 295.062 671.724 296.796C671.724 298.501 672.046 299.814 672.69 300.733C673.335 301.652 674.292 302.111 675.561 302.111ZM675.462 304.94C673.15 304.94 671.331 304.191 670.004 302.694C668.678 301.197 668.014 299.226 668.014 296.782C668.014 294.261 668.678 292.276 670.004 290.827C671.331 289.368 673.202 288.638 675.618 288.638C677.949 288.638 679.773 289.382 681.09 290.869C682.416 292.347 683.08 294.318 683.08 296.782C683.08 299.274 682.412 301.259 681.076 302.737C679.74 304.205 677.868 304.94 675.462 304.94ZM686.121 304.641V289.022H689.12L689.532 290.997C691.124 289.424 692.891 288.638 694.833 288.638C696.652 288.638 698.012 289.164 698.912 290.216C699.822 291.258 700.276 292.774 700.276 294.764V304.641H696.539V295.218C696.529 293.958 696.325 293.015 695.927 292.39C695.53 291.765 694.814 291.452 693.781 291.452C692.976 291.452 692.237 291.661 691.564 292.077C690.901 292.485 690.418 293.001 690.115 293.627C689.935 294.366 689.845 295.503 689.845 297.038V304.641H686.121ZM717.459 304.94C715.422 304.94 713.821 304.191 712.655 302.694C711.49 301.197 710.907 299.198 710.907 296.696C710.907 294.271 711.485 292.324 712.641 290.855C713.807 289.377 715.408 288.638 717.445 288.638C719.662 288.638 721.23 289.424 722.149 290.997C722.055 290.069 722.007 289.173 722.007 288.311V283.266L725.731 283.024V304.641H722.505L722.092 302.509C721.931 302.765 721.78 302.988 721.638 303.177C721.505 303.357 721.306 303.57 721.041 303.817C720.775 304.054 720.486 304.248 720.174 304.4C719.871 304.542 719.482 304.665 719.008 304.769C718.544 304.883 718.028 304.94 717.459 304.94ZM718.34 302.111C720.842 302.111 722.111 300.411 722.149 297.009C722.149 295.086 721.827 293.683 721.183 292.802C720.539 291.921 719.577 291.48 718.298 291.48C717.18 291.48 716.284 291.931 715.612 292.831C714.948 293.721 714.617 295.038 714.617 296.782C714.617 298.516 714.948 299.837 715.612 300.747C716.284 301.657 717.194 302.111 718.34 302.111ZM736.745 304.94C734.234 304.94 732.278 304.219 730.876 302.779C729.483 301.33 728.786 299.33 728.786 296.782C728.786 294.299 729.445 292.324 730.762 290.855C732.079 289.387 733.874 288.647 736.148 288.638C738.299 288.638 739.967 289.311 741.151 290.656C742.345 292.002 742.942 293.788 742.942 296.014C742.942 296.175 742.937 296.436 742.928 296.796C742.928 297.156 742.928 297.421 742.928 297.592H732.538C732.576 299.051 732.974 300.183 733.732 300.989C734.5 301.784 735.551 302.182 736.887 302.182C738.593 302.182 740.232 301.737 741.805 300.846L742.331 303.49C740.767 304.456 738.906 304.94 736.745 304.94ZM732.61 295.247H739.431C739.431 293.977 739.142 293.001 738.565 292.319C737.987 291.637 737.186 291.296 736.163 291.296C735.206 291.296 734.396 291.627 733.732 292.291C733.079 292.954 732.704 293.939 732.61 295.247ZM750.972 304.925C748.669 304.925 746.827 304.532 745.443 303.746L745.827 300.946C746.452 301.287 747.248 301.595 748.215 301.87C749.181 302.135 750.062 302.268 750.858 302.268C751.682 302.268 752.322 302.116 752.777 301.813C753.241 301.5 753.478 301.045 753.487 300.448C753.487 299.908 753.27 299.482 752.834 299.169C752.407 298.857 751.588 298.468 750.375 298.004C749.958 297.852 749.688 297.753 749.565 297.705C748.125 297.146 747.087 296.526 746.452 295.844C745.818 295.152 745.5 294.219 745.5 293.044C745.5 291.623 746.012 290.533 747.035 289.775C748.068 289.017 749.503 288.638 751.341 288.638C753.331 288.638 755.079 289.012 756.586 289.761L755.662 292.333C754.174 291.642 752.758 291.296 751.412 291.296C750.664 291.296 750.077 291.424 749.65 291.679C749.233 291.926 749.025 292.305 749.025 292.816C749.025 293.3 749.229 293.679 749.636 293.953C750.043 294.219 750.839 294.569 752.024 295.005C752.061 295.015 752.185 295.057 752.393 295.133C752.602 295.209 752.763 295.27 752.876 295.318C754.307 295.839 755.359 296.464 756.031 297.194C756.704 297.914 757.041 298.857 757.041 300.022C757.031 301.585 756.5 302.794 755.449 303.646C754.397 304.499 752.905 304.925 750.972 304.925ZM765.767 304.641L773.427 283.806H777.62L785.167 304.641H781.216L779.155 298.757H771.864L769.789 304.641H765.767ZM772.83 295.886H778.174C776.469 290.419 775.592 287.596 775.545 287.416L772.83 295.886ZM793.865 304.94C791.477 304.94 789.615 304.229 788.279 302.808C786.953 301.386 786.29 299.354 786.29 296.711C786.29 294.152 786.986 292.167 788.379 290.756C789.781 289.344 791.624 288.638 793.907 288.638C795.736 288.638 797.28 289.031 798.541 289.818L797.659 292.475C796.371 291.803 795.172 291.466 794.064 291.466C792.804 291.466 791.809 291.916 791.079 292.816C790.359 293.717 789.999 295.029 789.999 296.753C789.999 298.497 790.354 299.823 791.065 300.733C791.785 301.642 792.799 302.097 794.106 302.097C795.471 302.097 796.783 301.694 798.043 300.889L798.398 303.717C797.745 304.153 797.067 304.466 796.366 304.655C795.665 304.845 794.831 304.94 793.865 304.94ZM808.077 304.94C805.689 304.94 803.828 304.229 802.492 302.808C801.165 301.386 800.502 299.354 800.502 296.711C800.502 294.152 801.198 292.167 802.591 290.756C803.993 289.344 805.836 288.638 808.12 288.638C809.948 288.638 811.493 289.031 812.753 289.818L811.872 292.475C810.583 291.803 809.385 291.466 808.276 291.466C807.016 291.466 806.021 291.916 805.291 292.816C804.571 293.717 804.211 295.029 804.211 296.753C804.211 298.497 804.567 299.823 805.277 300.733C805.997 301.642 807.011 302.097 808.319 302.097C809.683 302.097 810.995 301.694 812.255 300.889L812.611 303.717C811.957 304.153 811.28 304.466 810.578 304.655C809.877 304.845 809.044 304.94 808.077 304.94ZM826.837 303.419C825.596 304.433 823.962 304.94 821.934 304.94C819.906 304.94 818.272 304.433 817.031 303.419C815.799 302.405 815.183 300.917 815.183 298.956V289.022H818.921V298.814C818.921 299.979 819.163 300.823 819.646 301.344C820.139 301.865 820.916 302.126 821.977 302.126C823.019 302.126 823.777 301.87 824.251 301.358C824.734 300.837 824.976 299.989 824.976 298.814V289.022H828.699V298.956C828.699 300.908 828.079 302.396 826.837 303.419ZM839.33 304.94C836.819 304.94 834.863 304.219 833.46 302.779C832.067 301.33 831.371 299.33 831.371 296.782C831.371 294.299 832.03 292.324 833.347 290.855C834.664 289.387 836.459 288.647 838.733 288.638C840.884 288.638 842.551 289.311 843.736 290.656C844.93 292.002 845.527 293.788 845.527 296.014C845.527 296.175 845.522 296.436 845.512 296.796C845.512 297.156 845.512 297.421 845.512 297.592H835.123C835.161 299.051 835.559 300.183 836.317 300.989C837.084 301.784 838.136 302.182 839.472 302.182C841.178 302.182 842.817 301.737 844.39 300.846L844.915 303.49C843.352 304.456 841.49 304.94 839.33 304.94ZM835.194 295.247H842.016C842.016 293.977 841.727 293.001 841.149 292.319C840.571 291.637 839.771 291.296 838.747 291.296C837.79 291.296 836.98 291.627 836.317 292.291C835.663 292.954 835.289 293.939 835.194 295.247ZM848.653 304.641V289.022H852.377V304.641H848.653ZM848.653 286.748V283.564H852.391V286.748H848.653ZM861.743 304.854C860.672 304.854 859.782 304.731 859.071 304.485C858.37 304.229 857.816 303.826 857.408 303.277C857.001 302.727 856.716 302.073 856.555 301.315C856.394 300.557 856.314 299.615 856.314 298.487V283.266L860.037 283.024V298.416C860.037 299.818 860.203 300.771 860.535 301.273C860.866 301.765 861.511 302.012 862.468 302.012C862.941 302.012 863.543 301.96 864.273 301.855L864.372 304.513C864.363 304.513 864.244 304.537 864.017 304.584C863.799 304.632 863.586 304.67 863.377 304.698C863.178 304.736 862.923 304.769 862.61 304.797C862.297 304.835 862.008 304.854 861.743 304.854ZM871.208 304.925C868.906 304.925 867.063 304.532 865.68 303.746L866.063 300.946C866.689 301.287 867.485 301.595 868.451 301.87C869.418 302.135 870.299 302.268 871.095 302.268C871.919 302.268 872.558 302.116 873.013 301.813C873.478 301.5 873.714 301.045 873.724 300.448C873.724 299.908 873.506 299.482 873.07 299.169C872.644 298.857 871.824 298.468 870.611 298.004C870.194 297.852 869.924 297.753 869.801 297.705C868.361 297.146 867.324 296.526 866.689 295.844C866.054 295.152 865.737 294.219 865.737 293.044C865.737 291.623 866.248 290.533 867.271 289.775C868.304 289.017 869.74 288.638 871.578 288.638C873.568 288.638 875.316 289.012 876.822 289.761L875.898 292.333C874.411 291.642 872.994 291.296 871.649 291.296C870.9 291.296 870.313 291.424 869.887 291.679C869.47 291.926 869.261 292.305 869.261 292.816C869.261 293.3 869.465 293.679 869.872 293.953C870.28 294.219 871.076 294.569 872.26 295.005C872.298 295.015 872.421 295.057 872.63 295.133C872.838 295.209 872.999 295.27 873.113 295.318C874.543 295.839 875.595 296.464 876.268 297.194C876.941 297.914 877.277 298.857 877.277 300.022C877.267 301.585 876.737 302.794 875.685 303.646C874.633 304.499 873.141 304.925 871.208 304.925ZM893.749 304.94C891.712 304.94 890.111 304.191 888.945 302.694C887.78 301.197 887.197 299.198 887.197 296.696C887.197 294.271 887.775 292.324 888.931 290.855C890.097 289.377 891.698 288.638 893.735 288.638C895.952 288.638 897.52 289.424 898.439 290.997C898.344 290.069 898.297 289.173 898.297 288.311V283.266L902.021 283.024V304.641H898.794L898.382 302.509C898.221 302.765 898.07 302.988 897.928 303.177C897.795 303.357 897.596 303.57 897.331 303.817C897.065 304.054 896.776 304.248 896.464 304.4C896.16 304.542 895.772 304.665 895.298 304.769C894.834 304.883 894.318 304.94 893.749 304.94ZM894.63 302.111C897.132 302.111 898.401 300.411 898.439 297.009C898.439 295.086 898.117 293.683 897.473 292.802C896.828 291.921 895.867 291.48 894.588 291.48C893.47 291.48 892.574 291.931 891.901 292.831C891.238 293.721 890.907 295.038 890.907 296.782C890.907 298.516 891.238 299.837 891.901 300.747C892.574 301.657 893.484 302.111 894.63 302.111ZM913.035 304.94C910.524 304.94 908.568 304.219 907.166 302.779C905.773 301.33 905.076 299.33 905.076 296.782C905.076 294.299 905.735 292.324 907.052 290.855C908.369 289.387 910.164 288.647 912.438 288.638C914.589 288.638 916.257 289.311 917.441 290.656C918.635 292.002 919.232 293.788 919.232 296.014C919.232 296.175 919.227 296.436 919.218 296.796C919.218 297.156 919.218 297.421 919.218 297.592H908.828C908.866 299.051 909.264 300.183 910.022 300.989C910.79 301.784 911.841 302.182 913.177 302.182C914.883 302.182 916.522 301.737 918.095 300.846L918.621 303.49C917.057 304.456 915.195 304.94 913.035 304.94ZM908.899 295.247H915.721C915.721 293.977 915.432 293.001 914.854 292.319C914.276 291.637 913.476 291.296 912.453 291.296C911.496 291.296 910.685 291.627 910.022 292.291C909.368 292.954 908.994 293.939 908.899 295.247ZM930.332 304.641V283.82H934.183V301.571H942.895L942.782 304.641H930.332ZM952.02 302.111C953.28 302.111 954.227 301.652 954.862 300.733C955.497 299.814 955.814 298.497 955.814 296.782C955.814 295.048 955.497 293.726 954.862 292.816C954.227 291.907 953.27 291.452 951.991 291.452C950.731 291.452 949.779 291.912 949.135 292.831C948.5 293.74 948.182 295.062 948.182 296.796C948.182 298.501 948.504 299.814 949.149 300.733C949.793 301.652 950.75 302.111 952.02 302.111ZM951.92 304.94C949.608 304.94 947.789 304.191 946.463 302.694C945.136 301.197 944.473 299.226 944.473 296.782C944.473 294.261 945.136 292.276 946.463 290.827C947.789 289.368 949.66 288.638 952.077 288.638C954.407 288.638 956.231 289.382 957.548 290.869C958.875 292.347 959.538 294.318 959.538 296.782C959.538 299.274 958.87 301.259 957.534 302.737C956.198 304.205 954.327 304.94 951.92 304.94ZM962.665 304.641V289.022H966.388V304.641H962.665ZM962.665 286.748V283.564H966.403V286.748H962.665ZM975.271 304.925C972.969 304.925 971.126 304.532 969.742 303.746L970.126 300.946C970.752 301.287 971.547 301.595 972.514 301.87C973.48 302.135 974.361 302.268 975.157 302.268C975.982 302.268 976.621 302.116 977.076 301.813C977.54 301.5 977.777 301.045 977.787 300.448C977.787 299.908 977.569 299.482 977.133 299.169C976.706 298.857 975.887 298.468 974.674 298.004C974.257 297.852 973.987 297.753 973.864 297.705C972.424 297.146 971.386 296.526 970.752 295.844C970.117 295.152 969.799 294.219 969.799 293.044C969.799 291.623 970.311 290.533 971.334 289.775C972.367 289.017 973.802 288.638 975.641 288.638C977.63 288.638 979.378 289.012 980.885 289.761L979.961 292.333C978.474 291.642 977.057 291.296 975.712 291.296C974.963 291.296 974.376 291.424 973.949 291.679C973.532 291.926 973.324 292.305 973.324 292.816C973.324 293.3 973.528 293.679 973.935 293.953C974.343 294.219 975.138 294.569 976.323 295.005C976.361 295.015 976.484 295.057 976.692 295.133C976.901 295.209 977.062 295.27 977.176 295.318C978.606 295.839 979.658 296.464 980.331 297.194C981.003 297.914 981.34 298.857 981.34 300.022C981.33 301.585 980.8 302.794 979.748 303.646C978.696 304.499 977.204 304.925 975.271 304.925ZM984.381 304.641V289.022H988.105V304.641H984.381ZM984.381 286.748V283.564H988.119V286.748H984.381ZM992.013 304.641V289.022H995.14L995.623 291.409C996.646 289.77 998.129 288.951 1000.07 288.951C1000.48 288.951 1000.81 288.97 1001.07 289.008L1001.01 292.12C1000.63 292.063 1000.24 292.035 999.83 292.035C998.456 292.035 997.428 292.4 996.746 293.129C996.073 293.859 995.737 294.872 995.737 296.171V304.641H992.013ZM1008.33 304.925C1006.03 304.925 1004.18 304.532 1002.8 303.746L1003.18 300.946C1003.81 301.287 1004.61 301.595 1005.57 301.87C1006.54 302.135 1007.42 302.268 1008.22 302.268C1009.04 302.268 1009.68 302.116 1010.13 301.813C1010.6 301.5 1010.84 301.045 1010.84 300.448C1010.84 299.908 1010.63 299.482 1010.19 299.169C1009.76 298.857 1008.94 298.468 1007.73 298.004C1007.32 297.852 1007.05 297.753 1006.92 297.705C1005.48 297.146 1004.44 296.526 1003.81 295.844C1003.17 295.152 1002.86 294.219 1002.86 293.044C1002.86 291.623 1003.37 290.533 1004.39 289.775C1005.42 289.017 1006.86 288.638 1008.7 288.638C1010.69 288.638 1012.44 289.012 1013.94 289.761L1013.02 292.333C1011.53 291.642 1010.11 291.296 1008.77 291.296C1008.02 291.296 1007.43 291.424 1007.01 291.679C1006.59 291.926 1006.38 292.305 1006.38 292.816C1006.38 293.3 1006.59 293.679 1006.99 293.953C1007.4 294.219 1008.2 294.569 1009.38 295.005C1009.42 295.015 1009.54 295.057 1009.75 295.133C1009.96 295.209 1010.12 295.27 1010.23 295.318C1011.66 295.839 1012.72 296.464 1013.39 297.194C1014.06 297.914 1014.4 298.857 1014.4 300.022C1014.39 301.585 1013.86 302.794 1012.81 303.646C1011.75 304.499 1010.26 304.925 1008.33 304.925Z" fill="#F4F6FC"/>
</g>
<defs>
<clipPath id="clip0_1_2">
<rect width="1512" height="982" fill="white"/>
</clipPath>
</defs>
</svg>