<svg width="247" height="91" viewBox="0 0 247 91" fill="none" xmlns="http://www.w3.org/2000/svg">
<rect width="235" height="91" fill="#26619C"/>
<path d="M69.1793 14.7765C69.7065 14.8653 70.0134 15.4223 69.8068 15.9154L45.5639 73.7844C45.4347 74.0928 45.133 74.2935 44.7986 74.2935L37.4678 74.2936L31.2336 74.2936C30.6444 74.2936 30.2429 73.6967 30.4651 73.151L42.9843 42.3977L55.112 13.0597C55.2598 12.7021 55.6352 12.4941 56.0167 12.5584L69.1793 14.7765Z" fill="#F4F6FC"/>
<path d="M82.8527 59.9898C82.9811 60.5126 82.5853 61.0174 82.0469 61.0174L75.2223 61.0174L67.5976 61.0174C67.2054 61.0174 66.8667 60.7427 66.7857 60.3589L65.0458 52.1088C65.0454 52.1065 65.0452 52.1042 65.0454 52.1019C65.0456 52.0995 65.0454 52.0971 65.0449 52.0947L62.4197 40.0221C62.3847 39.8611 62.3984 39.6934 62.4591 39.5402L70.9903 17.9993C71.2879 17.2478 72.3748 17.322 72.5676 18.1069L82.8527 59.9898Z" fill="#F4F6FC"/>
<path d="M112.478 35.6626C112.742 35.6626 112.97 35.7588 113.162 35.951C113.355 36.1432 113.451 36.3715 113.451 36.6358V59.9207C113.451 60.185 113.355 60.4133 113.162 60.6056C112.97 60.7978 112.742 60.8939 112.478 60.8939H106.674C106.098 60.8939 105.617 60.6416 105.233 60.137L97.3748 50.1166V59.9207C97.3748 60.185 97.2787 60.4133 97.0865 60.6056C96.8942 60.7978 96.666 60.8939 96.4016 60.8939H89.6973C89.433 60.8939 89.2047 60.7978 89.0125 60.6056C88.8202 60.4133 88.7241 60.185 88.7241 59.9207V36.6358C88.7241 36.3715 88.8202 36.1432 89.0125 35.951C89.2047 35.7588 89.433 35.6626 89.6973 35.6626H95.5366C96.1133 35.6626 96.5819 35.9029 96.9423 36.3835L104.8 47.233V36.6358C104.8 36.3715 104.896 36.1432 105.088 35.951C105.281 35.7588 105.509 35.6626 105.773 35.6626H112.478ZM136.722 53.5048H143.246C143.51 53.5048 143.738 53.6009 143.931 53.7931C144.123 53.9854 144.219 54.2136 144.219 54.478V59.9207C144.219 60.185 144.123 60.4133 143.931 60.6056C143.738 60.7978 143.51 60.8939 143.246 60.8939H120.393C120.129 60.8939 119.901 60.7978 119.708 60.6056C119.516 60.4133 119.42 60.185 119.42 59.9207V54.478C119.42 54.2136 119.516 53.9854 119.708 53.7931C119.901 53.6009 120.129 53.5048 120.393 53.5048H126.989V43.0518H120.393C120.129 43.0518 119.901 42.9557 119.708 42.7634C119.516 42.5712 119.42 42.3429 119.42 42.0786V36.6358C119.42 36.3715 119.516 36.1432 119.708 35.951C119.901 35.7588 120.129 35.6626 120.393 35.6626H143.246C143.51 35.6626 143.738 35.7588 143.931 35.951C144.123 36.1432 144.219 36.3715 144.219 36.6358V42.0786C144.219 42.3429 144.123 42.5712 143.931 42.7634C143.738 42.9557 143.51 43.0518 143.246 43.0518H136.722V53.5048ZM167.165 36.6358C167.526 35.987 168.042 35.6626 168.715 35.6626H175.311C175.576 35.6626 175.804 35.7588 175.996 35.951C176.188 36.1432 176.285 36.3715 176.285 36.6358V59.9207C176.285 60.185 176.188 60.4133 175.996 60.6056C175.804 60.7978 175.576 60.8939 175.311 60.8939H168.787C168.523 60.8939 168.295 60.7978 168.102 60.6056C167.91 60.4133 167.814 60.185 167.814 59.9207V48.7469L165.183 53.9373C165.111 54.1055 164.942 54.2977 164.678 54.514C164.414 54.7303 164.077 54.8384 163.669 54.8384H161.218C160.809 54.8384 160.473 54.7303 160.209 54.514C159.944 54.2977 159.776 54.1055 159.704 53.9373L157.073 48.7469V59.9207C157.073 60.185 156.977 60.4133 156.784 60.6056C156.592 60.7978 156.364 60.8939 156.1 60.8939H149.575C149.311 60.8939 149.083 60.7978 148.891 60.6056C148.698 60.4133 148.602 60.185 148.602 59.9207V36.6358C148.602 36.3715 148.698 36.1432 148.891 35.951C149.083 35.7588 149.311 35.6626 149.575 35.6626H156.172C156.844 35.6626 157.361 35.987 157.722 36.6358L162.443 45.2866L167.165 36.6358ZM183.624 51.7025C183.359 51.7025 183.131 51.6064 182.939 51.4142C182.747 51.2219 182.65 50.9936 182.65 50.7293V45.7191C182.65 45.4548 182.747 45.2265 182.939 45.0343C183.131 44.842 183.359 44.7459 183.624 44.7459H189.355V39.3032C189.355 39.0388 189.451 38.8105 189.643 38.6183C189.835 38.4261 190.064 38.3299 190.328 38.3299H195.807C196.071 38.3299 196.299 38.4261 196.492 38.6183C196.684 38.8105 196.78 39.0388 196.78 39.3032V44.7459H202.511C202.775 44.7459 203.004 44.842 203.196 45.0343C203.388 45.2265 203.484 45.4548 203.484 45.7191V50.7293C203.484 50.9936 203.388 51.2219 203.196 51.4142C203.004 51.6064 202.775 51.7025 202.511 51.7025H196.78V57.3255C196.78 57.5898 196.684 57.8181 196.492 58.0103C196.299 58.2026 196.071 58.2987 195.807 58.2987H190.328C190.064 58.2987 189.835 58.2026 189.643 58.0103C189.451 57.8181 189.355 57.5898 189.355 57.3255V51.7025H183.624Z" fill="#F4F6FC"/>
<path d="M70.047 73.8561C69.0741 73.8561 68.3132 73.5628 67.7644 72.9762C67.2184 72.3895 66.9454 71.5865 66.9454 70.5672C66.9454 69.9195 67.0732 69.3503 67.3287 68.8595C67.5843 68.3658 67.9604 67.981 68.457 67.7051C68.9536 67.4292 69.5403 67.2913 70.2169 67.2913C70.9923 67.2913 71.6574 67.4583 72.2121 67.7923L71.8287 68.6722C71.3002 68.3876 70.7702 68.2453 70.2387 68.2453C69.594 68.2453 69.0872 68.4544 68.7184 68.8726C68.3495 69.2908 68.1651 69.86 68.1651 70.5802C68.1651 71.2947 68.3292 71.8595 68.6574 72.2748C68.9856 72.6901 69.4662 72.8978 70.0993 72.8978C70.5059 72.8978 70.8747 72.8339 71.2058 72.7061V71.225H69.8684L69.8771 70.2971H72.3166V73.3769C71.9217 73.5396 71.547 73.6601 71.1927 73.7385C70.8413 73.8169 70.4594 73.8561 70.047 73.8561ZM75.6884 73.8561C74.9188 73.8561 74.319 73.6354 73.8892 73.194C73.4623 72.7496 73.2489 72.1369 73.2489 71.3557C73.2489 70.5948 73.4507 69.9892 73.8544 69.5391C74.2581 69.089 74.8084 68.8624 75.5054 68.8595C76.1646 68.8595 76.6758 69.0657 77.0388 69.4781C77.4047 69.8905 77.5877 70.4379 77.5877 71.1204C77.5877 71.1698 77.5862 71.2496 77.5833 71.36C77.5833 71.4704 77.5833 71.5517 77.5833 71.604H74.3989C74.4105 72.0512 74.5325 72.3982 74.7648 72.6451C75.0001 72.889 75.3224 73.011 75.7319 73.011C76.2547 73.011 76.7571 72.8745 77.2392 72.6015L77.4004 73.4118C76.9212 73.708 76.3505 73.8561 75.6884 73.8561ZM74.4207 70.8852H76.5117C76.5117 70.496 76.4231 70.1969 76.246 69.9878C76.0688 69.7787 75.8234 69.6741 75.5097 69.6741C75.2164 69.6741 74.9681 69.7758 74.7648 69.9791C74.5644 70.1824 74.4497 70.4844 74.4207 70.8852ZM80.0489 73.8518C79.3432 73.8518 78.7784 73.7313 78.3544 73.4902L78.472 72.632C78.6637 72.7366 78.9076 72.831 79.2038 72.9152C79.5001 72.9965 79.7701 73.0372 80.0141 73.0372C80.2668 73.0372 80.4628 72.9907 80.6022 72.8978C80.7445 72.8019 80.8171 72.6625 80.82 72.4796C80.82 72.314 80.7532 72.1833 80.6196 72.0875C80.4889 71.9917 80.2377 71.8726 79.866 71.7303C79.7382 71.6838 79.6554 71.6533 79.6177 71.6388C79.1762 71.4675 78.8582 71.2772 78.6637 71.0681C78.4691 70.8561 78.3718 70.5701 78.3718 70.21C78.3718 69.7743 78.5286 69.4404 78.8423 69.208C79.1588 68.9757 79.5988 68.8595 80.1622 68.8595C80.7721 68.8595 81.3079 68.9742 81.7697 69.2037L81.4865 69.9921C81.0305 69.7801 80.5964 69.6741 80.184 69.6741C79.9546 69.6741 79.7745 69.7134 79.6438 69.7918C79.516 69.8673 79.4521 69.9834 79.4521 70.1403C79.4521 70.2884 79.5146 70.4045 79.6395 70.4888C79.7643 70.5701 80.0083 70.6775 80.3713 70.8111C80.3829 70.814 80.4207 70.8271 80.4846 70.8503C80.5485 70.8736 80.5978 70.8924 80.6327 70.907C81.0712 71.0667 81.3936 71.2584 81.5998 71.482C81.806 71.7027 81.9091 71.9917 81.9091 72.3489C81.9062 72.8281 81.7435 73.1983 81.4212 73.4597C81.0988 73.7211 80.6414 73.8518 80.0489 73.8518ZM84.7275 73.83C84.4023 73.83 84.1307 73.7922 83.9129 73.7167C83.698 73.6383 83.5296 73.5163 83.4076 73.3508C83.2856 73.1853 83.1985 72.9907 83.1462 72.7671C83.0969 72.5405 83.0722 72.2617 83.0722 71.9307V69.6698H82.288L82.3316 69.0512L83.1506 68.9771L83.5165 67.679L84.2135 67.6746V68.9771H85.4028V69.6698H84.2135V71.9525C84.2135 72.3155 84.2658 72.5739 84.3703 72.7279C84.4749 72.8818 84.668 72.9587 84.9497 72.9587C85.1152 72.9587 85.2924 72.9442 85.4812 72.9152L85.5117 73.7342C85.5059 73.7342 85.4696 73.7414 85.4028 73.7559C85.3389 73.7676 85.2764 73.7777 85.2154 73.7864C85.1574 73.798 85.0818 73.8082 84.9889 73.8169C84.896 73.8256 84.8089 73.83 84.7275 73.83ZM86.3437 73.7646V68.9771H87.485V73.7646H86.3437ZM86.3437 68.2801V67.3044H87.4894V68.2801H86.3437ZM90.7653 72.9892C91.1515 72.9892 91.442 72.8484 91.6365 72.5667C91.8311 72.285 91.9284 71.8813 91.9284 71.3557C91.9284 70.8242 91.8311 70.4191 91.6365 70.1403C91.442 69.8615 91.1486 69.7221 90.7566 69.7221C90.3703 69.7221 90.0784 69.8629 89.881 70.1446C89.6864 70.4234 89.5891 70.8285 89.5891 71.36C89.5891 71.8828 89.6878 72.285 89.8853 72.5667C90.0828 72.8484 90.3761 72.9892 90.7653 72.9892ZM90.7348 73.8561C90.0262 73.8561 89.4686 73.6267 89.062 73.1678C88.6554 72.709 88.4521 72.1049 88.4521 71.3557C88.4521 70.5831 88.6554 69.9747 89.062 69.5304C89.4686 69.0831 90.0421 68.8595 90.7827 68.8595C91.4971 68.8595 92.0562 69.0875 92.4599 69.5435C92.8664 69.9965 93.0697 70.6006 93.0697 71.3557C93.0697 72.1194 92.865 72.7279 92.4555 73.1809C92.046 73.6311 91.4724 73.8561 90.7348 73.8561ZM94.002 73.7646V68.9771H94.9211L95.0475 69.5827C95.5354 69.1006 96.077 68.8595 96.6723 68.8595C97.2299 68.8595 97.6467 69.0207 97.9226 69.3431C98.2014 69.6625 98.3408 70.1272 98.3408 70.7371V73.7646H97.1951V70.8765C97.1922 70.4902 97.1297 70.2012 97.0078 70.0096C96.8858 69.8179 96.6665 69.7221 96.35 69.7221C96.1031 69.7221 95.8766 69.786 95.6704 69.9137C95.4671 70.0386 95.319 70.1969 95.2261 70.3886C95.1709 70.6151 95.1433 70.9636 95.1433 71.4341V73.7646H94.002ZM103.607 73.8561C102.983 73.8561 102.492 73.6267 102.135 73.1678C101.778 72.709 101.599 72.0962 101.599 71.3295C101.599 70.586 101.776 69.9892 102.131 69.5391C102.488 69.0861 102.979 68.8595 103.603 68.8595C104.283 68.8595 104.763 69.1006 105.045 69.5827C105.016 69.2981 105.001 69.0236 105.001 68.7593V67.2129L106.143 67.1388V73.7646H105.154L105.028 73.1112C104.978 73.1896 104.932 73.2579 104.888 73.316C104.848 73.3711 104.787 73.4365 104.705 73.512C104.624 73.5846 104.535 73.6441 104.44 73.6906C104.347 73.7342 104.228 73.7719 104.082 73.8039C103.94 73.8387 103.782 73.8561 103.607 73.8561ZM103.878 72.9892C104.644 72.9892 105.033 72.4679 105.045 71.4254C105.045 70.8358 104.946 70.406 104.749 70.1359C104.551 69.8658 104.257 69.7308 103.864 69.7308C103.522 69.7308 103.247 69.8687 103.041 70.1446C102.838 70.4176 102.736 70.8213 102.736 71.3557C102.736 71.8871 102.838 72.2922 103.041 72.571C103.247 72.8498 103.526 72.9892 103.878 72.9892ZM109.519 73.8561C108.749 73.8561 108.15 73.6354 107.72 73.194C107.293 72.7496 107.079 72.1369 107.079 71.3557C107.079 70.5948 107.281 69.9892 107.685 69.5391C108.089 69.089 108.639 68.8624 109.336 68.8595C109.995 68.8595 110.506 69.0657 110.869 69.4781C111.235 69.8905 111.418 70.4379 111.418 71.1204C111.418 71.1698 111.417 71.2496 111.414 71.36C111.414 71.4704 111.414 71.5517 111.414 71.604H108.229C108.241 72.0512 108.363 72.3982 108.595 72.6451C108.831 72.889 109.153 73.011 109.562 73.011C110.085 73.011 110.588 72.8745 111.07 72.6015L111.231 73.4118C110.752 73.708 110.181 73.8561 109.519 73.8561ZM108.251 70.8852H110.342C110.342 70.496 110.254 70.1969 110.076 69.9878C109.899 69.7787 109.654 69.6741 109.34 69.6741C109.047 69.6741 108.799 69.7758 108.595 69.9791C108.395 70.1824 108.28 70.4844 108.251 70.8852ZM113.879 73.8518C113.174 73.8518 112.609 73.7313 112.185 73.4902L112.303 72.632C112.494 72.7366 112.738 72.831 113.034 72.9152C113.331 72.9965 113.601 73.0372 113.845 73.0372C114.097 73.0372 114.293 72.9907 114.433 72.8978C114.575 72.8019 114.648 72.6625 114.651 72.4796C114.651 72.314 114.584 72.1833 114.45 72.0875C114.319 71.9917 114.068 71.8726 113.697 71.7303C113.569 71.6838 113.486 71.6533 113.448 71.6388C113.007 71.4675 112.689 71.2772 112.494 71.0681C112.3 70.8561 112.202 70.5701 112.202 70.21C112.202 69.7743 112.359 69.4404 112.673 69.208C112.989 68.9757 113.429 68.8595 113.993 68.8595C114.603 68.8595 115.138 68.9742 115.6 69.2037L115.317 69.9921C114.861 69.7801 114.427 69.6741 114.015 69.6741C113.785 69.6741 113.605 69.7134 113.474 69.7918C113.347 69.8673 113.283 69.9834 113.283 70.1403C113.283 70.2884 113.345 70.4045 113.47 70.4888C113.595 70.5701 113.839 70.6775 114.202 70.8111C114.213 70.814 114.251 70.8271 114.315 70.8503C114.379 70.8736 114.428 70.8924 114.463 70.907C114.902 71.0667 115.224 71.2584 115.43 71.482C115.636 71.7027 115.74 71.9917 115.74 72.3489C115.737 72.8281 115.574 73.1983 115.252 73.4597C114.929 73.7211 114.472 73.8518 113.879 73.8518ZM118.414 73.7646L120.762 67.3784H122.047L124.361 73.7646H123.15L122.518 71.9612H120.283L119.647 73.7646H118.414ZM120.579 71.0812H122.217C121.695 69.4055 121.426 68.5401 121.411 68.4849L120.579 71.0812ZM127.027 73.8561C126.295 73.8561 125.724 73.6383 125.315 73.2027C124.908 72.7671 124.705 72.1441 124.705 71.3339C124.705 70.5497 124.918 69.9413 125.345 69.5086C125.775 69.0759 126.34 68.8595 127.04 68.8595C127.6 68.8595 128.074 68.9801 128.46 69.2211L128.19 70.0357C127.795 69.8295 127.427 69.7264 127.088 69.7264C126.701 69.7264 126.396 69.8644 126.173 70.1403C125.952 70.4162 125.842 70.8184 125.842 71.3469C125.842 71.8813 125.951 72.2879 126.168 72.5667C126.389 72.8455 126.7 72.9849 127.101 72.9849C127.519 72.9849 127.921 72.8615 128.307 72.6146L128.416 73.4815C128.216 73.6151 128.008 73.7109 127.793 73.769C127.578 73.8271 127.323 73.8561 127.027 73.8561ZM131.383 73.8561C130.651 73.8561 130.08 73.6383 129.671 73.2027C129.264 72.7671 129.061 72.1441 129.061 71.3339C129.061 70.5497 129.274 69.9413 129.701 69.5086C130.131 69.0759 130.696 68.8595 131.396 68.8595C131.956 68.8595 132.43 68.9801 132.816 69.2211L132.546 70.0357C132.151 69.8295 131.784 69.7264 131.444 69.7264C131.058 69.7264 130.753 69.8644 130.529 70.1403C130.308 70.4162 130.198 70.8184 130.198 71.3469C130.198 71.8813 130.307 72.2879 130.525 72.5667C130.745 72.8455 131.056 72.9849 131.457 72.9849C131.875 72.9849 132.277 72.8615 132.664 72.6146L132.772 73.4815C132.572 73.6151 132.364 73.7109 132.15 73.769C131.935 73.8271 131.679 73.8561 131.383 73.8561ZM137.133 73.39C136.753 73.7008 136.252 73.8561 135.63 73.8561C135.009 73.8561 134.508 73.7008 134.127 73.39C133.75 73.0793 133.561 72.6233 133.561 72.0222V68.9771H134.707V71.9786C134.707 72.3358 134.781 72.5943 134.929 72.754C135.08 72.9137 135.318 72.9936 135.643 72.9936C135.963 72.9936 136.195 72.9152 136.34 72.7584C136.488 72.5986 136.562 72.3387 136.562 71.9786V68.9771H137.704V72.0222C137.704 72.6204 137.513 73.0764 137.133 73.39ZM140.962 73.8561C140.193 73.8561 139.593 73.6354 139.163 73.194C138.736 72.7496 138.523 72.1369 138.523 71.3557C138.523 70.5948 138.725 69.9892 139.128 69.5391C139.532 69.089 140.082 68.8624 140.779 68.8595C141.438 68.8595 141.95 69.0657 142.313 69.4781C142.679 69.8905 142.861 70.4379 142.861 71.1204C142.861 71.1698 142.86 71.2496 142.857 71.36C142.857 71.4704 142.857 71.5517 142.857 71.604H139.673C139.684 72.0512 139.806 72.3982 140.039 72.6451C140.274 72.889 140.596 73.011 141.006 73.011C141.528 73.011 142.031 72.8745 142.513 72.6015L142.674 73.4118C142.195 73.708 141.624 73.8561 140.962 73.8561ZM139.695 70.8852H141.786C141.786 70.496 141.697 70.1969 141.52 69.9878C141.343 69.7787 141.097 69.6741 140.784 69.6741C140.49 69.6741 140.242 69.7758 140.039 69.9791C139.838 70.1824 139.724 70.4844 139.695 70.8852ZM143.82 73.7646V68.9771H144.961V73.7646H143.82ZM143.82 68.2801V67.3044H144.966V68.2801H143.82ZM147.832 73.83C147.504 73.83 147.231 73.7922 147.013 73.7167C146.798 73.6383 146.628 73.5149 146.503 73.3464C146.378 73.178 146.291 72.9776 146.242 72.7453C146.193 72.513 146.168 72.224 146.168 71.8784V67.2129L147.309 67.1388V71.8566C147.309 72.2864 147.36 72.5783 147.462 72.7322C147.563 72.8832 147.761 72.9587 148.054 72.9587C148.199 72.9587 148.384 72.9428 148.607 72.9108L148.638 73.7254C148.635 73.7254 148.599 73.7327 148.529 73.7472C148.462 73.7617 148.397 73.7734 148.333 73.7821C148.272 73.7937 148.194 73.8039 148.098 73.8126C148.002 73.8242 147.913 73.83 147.832 73.83ZM150.733 73.8518C150.028 73.8518 149.463 73.7313 149.039 73.4902L149.156 72.632C149.348 72.7366 149.592 72.831 149.888 72.9152C150.184 72.9965 150.454 73.0372 150.698 73.0372C150.951 73.0372 151.147 72.9907 151.286 72.8978C151.429 72.8019 151.501 72.6625 151.504 72.4796C151.504 72.314 151.437 72.1833 151.304 72.0875C151.173 71.9917 150.922 71.8726 150.55 71.7303C150.422 71.6838 150.34 71.6533 150.302 71.6388C149.861 71.4675 149.543 71.2772 149.348 71.0681C149.153 70.8561 149.056 70.5701 149.056 70.21C149.056 69.7743 149.213 69.4404 149.527 69.208C149.843 68.9757 150.283 68.8595 150.846 68.8595C151.456 68.8595 151.992 68.9742 152.454 69.2037L152.171 69.9921C151.715 69.7801 151.281 69.6741 150.868 69.6741C150.639 69.6741 150.459 69.7134 150.328 69.7918C150.2 69.8673 150.136 69.9834 150.136 70.1403C150.136 70.2884 150.199 70.4045 150.324 70.4888C150.449 70.5701 150.693 70.6775 151.056 70.8111C151.067 70.814 151.105 70.8271 151.169 70.8503C151.233 70.8736 151.282 70.8924 151.317 70.907C151.755 71.0667 152.078 71.2584 152.284 71.482C152.49 71.7027 152.593 71.9917 152.593 72.3489C152.59 72.8281 152.428 73.1983 152.105 73.4597C151.783 73.7211 151.326 73.8518 150.733 73.8518ZM157.642 73.8561C157.018 73.8561 156.527 73.6267 156.17 73.1678C155.813 72.709 155.634 72.0962 155.634 71.3295C155.634 70.586 155.811 69.9892 156.165 69.5391C156.523 69.0861 157.013 68.8595 157.638 68.8595C158.317 68.8595 158.798 69.1006 159.08 69.5827C159.051 69.2981 159.036 69.0236 159.036 68.7593V67.2129L160.178 67.1388V73.7646H159.189L159.062 73.1112C159.013 73.1896 158.966 73.2579 158.923 73.316C158.882 73.3711 158.821 73.4365 158.74 73.512C158.659 73.5846 158.57 73.6441 158.474 73.6906C158.381 73.7342 158.262 73.7719 158.117 73.8039C157.975 73.8387 157.816 73.8561 157.642 73.8561ZM157.912 72.9892C158.679 72.9892 159.068 72.4679 159.08 71.4254C159.08 70.8358 158.981 70.406 158.784 70.1359C158.586 69.8658 158.291 69.7308 157.899 69.7308C157.557 69.7308 157.282 69.8687 157.076 70.1446C156.873 70.4176 156.771 70.8213 156.771 71.3557C156.771 71.8871 156.873 72.2922 157.076 72.571C157.282 72.8498 157.561 72.9892 157.912 72.9892ZM163.554 73.8561C162.784 73.8561 162.184 73.6354 161.754 73.194C161.328 72.7496 161.114 72.1369 161.114 71.3557C161.114 70.5948 161.316 69.9892 161.72 69.5391C162.123 69.089 162.674 68.8624 163.371 68.8595C164.03 68.8595 164.541 69.0657 164.904 69.4781C165.27 69.8905 165.453 70.4379 165.453 71.1204C165.453 71.1698 165.451 71.2496 165.449 71.36C165.449 71.4704 165.449 71.5517 165.449 71.604H162.264C162.276 72.0512 162.398 72.3982 162.63 72.6451C162.865 72.889 163.188 73.011 163.597 73.011C164.12 73.011 164.622 72.8745 165.104 72.6015L165.266 73.4118C164.786 73.708 164.216 73.8561 163.554 73.8561ZM162.286 70.8852H164.377C164.377 70.496 164.288 70.1969 164.111 69.9878C163.934 69.7787 163.689 69.6741 163.375 69.6741C163.082 69.6741 162.833 69.7758 162.63 69.9791C162.43 70.1824 162.315 70.4844 162.286 70.8852ZM168.855 73.7646V67.3828H170.036V72.8237H172.706L172.671 73.7646H168.855ZM175.503 72.9892C175.889 72.9892 176.179 72.8484 176.374 72.5667C176.569 72.285 176.666 71.8813 176.666 71.3557C176.666 70.8242 176.569 70.4191 176.374 70.1403C176.179 69.8615 175.886 69.7221 175.494 69.7221C175.108 69.7221 174.816 69.8629 174.618 70.1446C174.424 70.4234 174.327 70.8285 174.327 71.36C174.327 71.8828 174.425 72.285 174.623 72.5667C174.82 72.8484 175.114 72.9892 175.503 72.9892ZM175.472 73.8561C174.764 73.8561 174.206 73.6267 173.799 73.1678C173.393 72.709 173.19 72.1049 173.19 71.3557C173.19 70.5831 173.393 69.9747 173.799 69.5304C174.206 69.0831 174.78 68.8595 175.52 68.8595C176.235 68.8595 176.794 69.0875 177.197 69.5435C177.604 69.9965 177.807 70.6006 177.807 71.3557C177.807 72.1194 177.602 72.7279 177.193 73.1809C176.783 73.6311 176.21 73.8561 175.472 73.8561ZM178.766 73.7646V68.9771H179.907V73.7646H178.766ZM178.766 68.2801V67.3044H179.911V68.2801H178.766ZM182.63 73.8518C181.924 73.8518 181.359 73.7313 180.935 73.4902L181.053 72.632C181.244 72.7366 181.488 72.831 181.784 72.9152C182.081 72.9965 182.351 73.0372 182.595 73.0372C182.847 73.0372 183.043 72.9907 183.183 72.8978C183.325 72.8019 183.398 72.6625 183.401 72.4796C183.401 72.314 183.334 72.1833 183.2 72.0875C183.07 71.9917 182.818 71.8726 182.447 71.7303C182.319 71.6838 182.236 71.6533 182.198 71.6388C181.757 71.4675 181.439 71.2772 181.244 71.0681C181.05 70.8561 180.952 70.5701 180.952 70.21C180.952 69.7743 181.109 69.4404 181.423 69.208C181.739 68.9757 182.179 68.8595 182.743 68.8595C183.353 68.8595 183.889 68.9742 184.35 69.2037L184.067 69.9921C183.611 69.7801 183.177 69.6741 182.765 69.6741C182.535 69.6741 182.355 69.7134 182.224 69.7918C182.097 69.8673 182.033 69.9834 182.033 70.1403C182.033 70.2884 182.095 70.4045 182.22 70.4888C182.345 70.5701 182.589 70.6775 182.952 70.8111C182.964 70.814 183.001 70.8271 183.065 70.8503C183.129 70.8736 183.178 70.8924 183.213 70.907C183.652 71.0667 183.974 71.2584 184.18 71.482C184.387 71.7027 184.49 71.9917 184.49 72.3489C184.487 72.8281 184.324 73.1983 184.002 73.4597C183.679 73.7211 183.222 73.8518 182.63 73.8518ZM185.422 73.7646V68.9771H186.563V73.7646H185.422ZM185.422 68.2801V67.3044H186.568V68.2801H185.422ZM187.761 73.7646V68.9771H188.72L188.868 69.709C189.181 69.2066 189.636 68.9554 190.231 68.9554C190.356 68.9554 190.458 68.9612 190.536 68.9728L190.519 69.9268C190.403 69.9094 190.282 69.9007 190.157 69.9007C189.736 69.9007 189.421 70.0125 189.212 70.2361C189.006 70.4597 188.903 70.7705 188.903 71.1683V73.7646H187.761ZM192.762 73.8518C192.056 73.8518 191.492 73.7313 191.068 73.4902L191.185 72.632C191.377 72.7366 191.621 72.831 191.917 72.9152C192.213 72.9965 192.483 73.0372 192.727 73.0372C192.98 73.0372 193.176 72.9907 193.315 72.8978C193.458 72.8019 193.53 72.6625 193.533 72.4796C193.533 72.314 193.466 72.1833 193.333 72.0875C193.202 71.9917 192.951 71.8726 192.579 71.7303C192.451 71.6838 192.369 71.6533 192.331 71.6388C191.889 71.4675 191.571 71.2772 191.377 71.0681C191.182 70.8561 191.085 70.5701 191.085 70.21C191.085 69.7743 191.242 69.4404 191.555 69.208C191.872 68.9757 192.312 68.8595 192.875 68.8595C193.485 68.8595 194.021 68.9742 194.483 69.2037L194.2 69.9921C193.744 69.7801 193.31 69.6741 192.897 69.6741C192.668 69.6741 192.488 69.7134 192.357 69.7918C192.229 69.8673 192.165 69.9834 192.165 70.1403C192.165 70.2884 192.228 70.4045 192.353 70.4888C192.478 70.5701 192.722 70.6775 193.085 70.8111C193.096 70.814 193.134 70.8271 193.198 70.8503C193.262 70.8736 193.311 70.8924 193.346 70.907C193.784 71.0667 194.107 71.2584 194.313 71.482C194.519 71.7027 194.622 71.9917 194.622 72.3489C194.619 72.8281 194.457 73.1983 194.134 73.4597C193.812 73.7211 193.355 73.8518 192.762 73.8518Z" fill="#F4F6FC"/>
</svg>
